<svg width="140" height="26" viewBox="0 0 140 26" fill="none" xmlns="http://www.w3.org/2000/svg">
<path d="M40.6744 11.7558L37.8544 10.6353C36.1861 9.9817 34.9785 9.5086 34.9785 8.35074C34.9785 7.19911 35.9433 6.50814 37.5556 6.50814C38.9127 6.50814 40.0767 6.88786 41.3653 7.77182C41.5521 7.90254 41.8073 7.85897 41.9505 7.67844L43.681 5.49968C43.8304 5.31293 43.7993 5.05148 43.6188 4.89585C42.0003 3.489 39.7717 2.66107 37.5556 2.66107C33.4595 2.66107 30.3657 5.22578 30.3657 8.62465C30.3657 12.0671 33.1732 13.5486 34.3746 14.028L37.3066 15.2605C38.8753 15.9142 39.9087 16.3499 39.9087 17.5389C39.9087 18.2548 39.5476 19.4624 37.1136 19.4624C35.6943 19.4624 33.9824 18.8026 32.5382 17.7194C32.3515 17.5825 32.09 17.6074 31.9469 17.7817L29.9237 20.2406C29.7743 20.4211 29.793 20.695 29.9735 20.8506C31.9033 22.4442 34.4369 23.3468 37.0016 23.3468C42.2057 23.3468 44.5712 20.141 44.5712 17.1654C44.5712 14.5447 43.3324 12.8265 40.6744 11.7558ZM14.081 10.7163C13.5394 10.5295 12.9418 10.8159 12.7551 11.3574C12.5683 11.899 12.8547 12.4904 13.3963 12.6834C14.5541 13.088 15.3323 14.1836 15.3323 15.4037C15.3323 16.9911 14.0374 18.2859 12.4501 18.2859C11.2237 18.2859 10.1281 17.5078 9.7235 16.3499C9.53675 15.8083 8.93915 15.522 8.39757 15.7087C7.85599 15.8955 7.56964 16.4931 7.75639 17.0347C8.44737 19.0267 10.3336 20.3713 12.4438 20.3713C15.1829 20.3713 17.4052 18.1427 17.4052 15.4099C17.4114 13.2934 16.073 11.4135 14.081 10.7163ZM22.5657 2.88517C21.8374 2.15684 20.9846 1.57791 20.0322 1.17951C19.0486 0.762432 18.0028 0.550781 16.9321 0.550781H7.96804C6.89111 0.550781 5.85153 0.762432 4.86797 1.17951C3.91554 1.58414 3.06894 2.15684 2.33439 2.88517C1.60606 3.6135 1.02713 4.46633 0.628728 5.41876C0.211651 6.40231 0 7.44812 0 8.51882V17.4829C0 18.5598 0.211651 19.5994 0.628728 20.5829C1.03336 21.5354 1.60606 22.382 2.33439 23.1165C3.06272 23.8448 3.91554 24.4238 4.86797 24.8222C5.85153 25.2393 6.89733 25.4509 7.96804 25.4509H16.9321C18.009 25.4509 19.0486 25.2393 20.0322 24.8222C20.9846 24.4176 21.8312 23.8448 22.5657 23.1165C23.2941 22.3882 23.873 21.5354 24.2714 20.5829C24.6885 19.5994 24.9001 18.5536 24.9001 17.4829V8.51882C24.9001 7.44189 24.6885 6.40231 24.2714 5.41876C23.873 4.46633 23.2941 3.61972 22.5657 2.88517ZM22.821 17.4829C22.821 20.7386 20.1816 23.3717 16.9321 23.3717H7.96804C4.71235 23.3717 2.07916 20.7323 2.07916 17.4829V8.51882C2.07916 5.26313 4.71857 2.62994 7.96804 2.62994H16.9321C20.1878 2.62994 22.821 5.26935 22.821 8.51882V17.4829ZM62.8479 8.33207C61.9079 8.33207 61.08 8.51882 60.3641 8.89855C59.6482 9.27205 59.0506 9.81363 58.5838 10.5108C58.2414 9.77628 57.7496 9.22847 57.1084 8.87365C56.4735 8.5126 55.7078 8.33829 54.8238 8.33829C53.9461 8.33829 53.1618 8.50015 52.4708 8.83007C51.7798 9.16 51.1947 9.62688 50.7153 10.2369L50.6157 9.00437C50.597 8.78027 50.4103 8.60597 50.18 8.60597H47.1235C46.8807 8.60597 46.6877 8.79895 46.6877 9.04172V22.5376C46.6877 22.7804 46.8807 22.9733 47.1235 22.9733H50.3979C50.6406 22.9733 50.8336 22.7804 50.8336 22.5376V13.5486C51.0639 13.1502 51.3627 12.8452 51.7238 12.6273C52.0848 12.4095 52.5144 12.3036 52.9999 12.3036C53.4419 12.3036 53.8029 12.3659 54.0893 12.4842C54.3694 12.6024 54.5873 12.8265 54.7429 13.1565C54.8923 13.4864 54.967 13.947 54.967 14.5384V22.5438C54.967 22.7866 55.16 22.9796 55.4028 22.9796H58.6771C58.9199 22.9796 59.1129 22.7866 59.1129 22.5438V13.9968V13.7043C59.3245 13.2623 59.6109 12.9137 59.9782 12.6709C60.3392 12.4219 60.7812 12.2974 61.2917 12.2974C61.7336 12.2974 62.0947 12.3597 62.3748 12.4779C62.6549 12.5962 62.8666 12.8203 63.016 13.144C63.1654 13.4677 63.2401 13.9221 63.2401 14.5073V22.5376C63.2401 22.7804 63.4331 22.9733 63.6758 22.9733H66.9627C67.2054 22.9733 67.3984 22.7804 67.3984 22.5376V13.8848C67.3984 11.9177 67 10.5046 66.2094 9.6331C65.4189 8.76782 64.2983 8.33207 62.8479 8.33207ZM10.8191 15.2854C10.9312 15.3228 11.0494 15.3415 11.1615 15.3415C11.591 15.3415 11.9956 15.0738 12.145 14.6443C12.3318 14.1027 12.0454 13.5113 11.5039 13.3183C10.346 12.9137 9.56787 11.8181 9.56787 10.598C9.56787 9.0106 10.8627 7.71579 12.4501 7.71579C13.6764 7.71579 14.772 8.49392 15.1766 9.65178C15.3634 10.1934 15.961 10.4797 16.5026 10.293C17.0441 10.1062 17.3305 9.5086 17.1437 8.96702C16.4528 6.97501 14.5666 5.63041 12.4563 5.63041C9.71727 5.63041 7.49494 7.85897 7.49494 10.5918C7.48871 12.7083 8.8271 14.5882 10.8191 15.2854ZM121.388 3.60727H117.952C117.709 3.60727 117.516 3.80025 117.516 4.04302V12.0671H110.177V4.04925C110.177 3.80647 109.984 3.6135 109.741 3.6135H106.292C106.05 3.6135 105.857 3.80647 105.857 4.04925V22.5376C105.857 22.7804 106.05 22.9733 106.292 22.9733H109.741C109.984 22.9733 110.177 22.7804 110.177 22.5376V15.5407H117.516V22.5314C117.516 22.7741 117.709 22.9671 117.952 22.9671H121.388C121.631 22.9671 121.824 22.7741 121.824 22.5314V4.04302C121.824 3.80647 121.631 3.60727 121.388 3.60727ZM139.951 22.3384L136.173 14.9368C137.281 14.4326 138.127 13.7478 138.712 12.8763C139.298 12.0111 139.59 10.8781 139.59 9.47748C139.59 8.22002 139.298 7.15554 138.719 6.28403C138.14 5.41253 137.306 4.75268 136.222 4.30448C135.139 3.85627 133.851 3.63217 132.363 3.63217H125.403C125.16 3.63217 124.967 3.82515 124.967 4.06792V22.5376C124.967 22.7804 125.16 22.9733 125.403 22.9733H128.846C129.088 22.9733 129.281 22.7804 129.281 22.5376V15.5967H131.946L135.538 22.7306C135.612 22.88 135.762 22.9671 135.924 22.9671H139.565C139.889 22.9671 140.101 22.6247 139.951 22.3384ZM134.535 11.4135C134.037 11.8554 133.315 12.0733 132.369 12.0733H129.288V7.09329H132.369C133.328 7.09329 134.05 7.31116 134.542 7.75314C135.033 8.19512 135.276 8.80517 135.276 9.59575C135.276 10.3677 135.033 10.9715 134.535 11.4135ZM79.0641 8.911C78.1802 8.52505 77.1717 8.33207 76.0325 8.33207C74.8 8.33207 73.7168 8.5375 72.7706 8.94212C71.8306 9.34675 71.1023 9.907 70.5919 10.6167C70.181 11.1894 69.932 11.8181 69.8573 12.5028C69.8262 12.7581 70.0378 12.9822 70.2931 12.9822H73.5736C73.7853 12.9822 73.9534 12.8203 73.9907 12.6149C74.053 12.2663 74.2024 11.9924 74.4451 11.7807C74.7688 11.5006 75.2233 11.3637 75.8084 11.3637C76.4621 11.3637 76.9476 11.5442 77.2651 11.899C77.5763 12.2601 77.7382 12.7581 77.7382 13.4055V14.1898H76.1819C73.9658 14.1898 72.3037 14.6007 71.1832 15.4162C70.0627 16.2379 69.5025 17.4019 69.5025 18.9146C69.5025 19.7363 69.7203 20.4771 70.1561 21.137C70.5919 21.7968 71.177 22.3073 71.924 22.6808C72.6648 23.048 73.4865 23.2286 74.3829 23.2286C75.8894 23.2286 77.0721 22.7181 77.9436 21.691V22.5314C77.9436 22.7741 78.1366 22.9671 78.3794 22.9671H81.467C81.7098 22.9671 81.9027 22.7741 81.9027 22.5314C81.9027 21.7221 81.9027 20.0227 81.9027 19.3815V13.4366C81.9027 12.3285 81.6537 11.3948 81.1495 10.6353C80.6391 9.86965 79.9481 9.29695 79.0641 8.911ZM76.8044 19.7612C76.3749 20.004 75.8769 20.1285 75.3104 20.1285C74.8062 20.1285 74.4016 19.9916 74.0965 19.7239C73.7915 19.4562 73.6359 19.1014 73.6359 18.6656C73.6359 18.0431 73.8475 17.5327 74.2708 17.1343C74.6941 16.7296 75.3478 16.5304 76.238 16.5304H77.7257V18.8835C77.5452 19.2259 77.234 19.5185 76.8044 19.7612ZM102.184 19.811C101.985 19.8297 101.773 19.8359 101.549 19.8359C101.02 19.8359 100.64 19.7363 100.422 19.5309C100.198 19.3255 100.092 18.9395 100.092 18.373V11.8554H102.059C102.302 11.8554 102.495 11.6625 102.495 11.4197V8.76782C102.495 8.52505 102.302 8.33207 102.059 8.33207H100.092V5.47478C100.092 5.232 99.8993 5.03903 99.6565 5.03903H96.3822C96.1394 5.03903 95.9464 5.232 95.9464 5.47478V8.33207H94.415C94.1723 8.33207 93.9793 8.52505 93.9793 8.76782V11.4135C93.9793 11.6562 94.1723 11.8492 94.415 11.8492H95.9464V18.8773C95.9464 20.3837 96.3137 21.4856 97.0545 22.1828C97.7952 22.88 98.8597 23.2348 100.248 23.2348C101.007 23.2348 101.711 23.1414 102.358 22.9609C102.545 22.9111 102.663 22.7368 102.663 22.5438V20.2406C102.669 19.9853 102.445 19.7861 102.184 19.811ZM92.2923 8.40055C92.0495 8.35697 91.7694 8.33207 91.4519 8.33207C90.7672 8.33207 90.238 8.40054 89.628 8.74915C89.074 9.06662 88.6382 9.42145 88.2709 10.0751L88.1776 9.00437C88.1589 8.77405 87.9721 8.59975 87.7418 8.59975H84.6916C84.4488 8.59975 84.2558 8.79272 84.2558 9.0355V22.5314C84.2558 22.7741 84.4488 22.9671 84.6916 22.9671H87.9659C88.2087 22.9671 88.4017 22.7741 88.4017 22.5314C88.4017 22.5314 88.4017 15.08 88.4017 14.4015C88.4017 13.7229 88.8685 12.8701 89.4039 12.4842C89.8894 12.1293 90.4372 11.8803 91.178 11.8181C91.3835 11.7994 91.7072 11.8119 92.1429 11.8554C92.3981 11.8803 92.616 11.6811 92.6222 11.4259L92.6658 8.84252C92.6596 8.61842 92.504 8.4379 92.2923 8.40055Z" fill="#00C4CC"/>
</svg>
